<svg width="154" height="43" viewBox="0 0 154 43" fill="none" xmlns="http://www.w3.org/2000/svg">
<g filter="url(#filter0_d_333_30)">
<path d="M18.7917 15.875H24.9583M8 2H35.75M35.75 8.16667V28.825C35.75 29.0703 35.6525 29.3056 35.4791 29.4791C35.3056 29.6525 35.0703 29.75 34.825 29.75H8.925C8.67967 29.75 8.4444 29.6525 8.27093 29.4791C8.09746 29.3056 8 29.0703 8 28.825V8.16667" stroke="#1A1A27" stroke-width="1.5" stroke-linecap="round" stroke-linejoin="round" shape-rendering="crispEdges"/>
</g>
<g filter="url(#filter1_d_333_30)">
<path d="M15.7917 14.875H21.9583M5 1H32.75M32.75 7.16667V27.825C32.75 28.0703 32.6525 28.3056 32.4791 28.4791C32.3056 28.6525 32.0703 28.75 31.825 28.75H5.925C5.67967 28.75 5.4444 28.6525 5.27093 28.4791C5.09746 28.3056 5 28.0703 5 27.825V7.16667" stroke="white" stroke-width="1.5" stroke-linecap="round" stroke-linejoin="round" shape-rendering="crispEdges"/>
</g>
<g filter="url(#filter2_d_333_30)">
<path d="M138.059 26.567C136.843 26.567 135.829 26.151 135.019 25.319C134.208 24.487 133.803 23.1857 133.803 21.415C133.803 19.8363 134.112 18.183 134.731 16.455C135.371 14.7057 136.309 13.2337 137.547 12.039C138.805 10.823 140.299 10.215 142.027 10.215C142.901 10.215 143.552 10.3643 143.979 10.663C144.405 10.9617 144.619 11.3563 144.619 11.847V12.071L144.971 10.375H149.579L147.275 21.255C147.189 21.575 147.147 21.9163 147.147 22.279C147.147 22.7057 147.243 23.015 147.435 23.207C147.648 23.3777 147.989 23.463 148.459 23.463C148.757 23.463 148.992 23.4203 149.163 23.335C148.693 24.5297 148.245 25.3723 147.819 25.863C147.392 26.3323 146.773 26.567 145.963 26.567C145.088 26.567 144.373 26.311 143.819 25.799C143.285 25.2657 142.955 24.5297 142.827 23.591C141.525 25.575 139.936 26.567 138.059 26.567ZM140.139 23.463C140.672 23.463 141.195 23.2177 141.707 22.727C142.24 22.215 142.603 21.5217 142.795 20.647L144.331 13.415C144.331 13.1377 144.224 12.871 144.011 12.615C143.797 12.3377 143.467 12.199 143.019 12.199C142.165 12.199 141.397 12.7003 140.715 13.703C140.032 14.6843 139.499 15.879 139.115 17.287C138.731 18.6737 138.539 19.9003 138.539 20.967C138.539 22.0337 138.688 22.7163 138.987 23.015C139.307 23.3137 139.691 23.463 140.139 23.463Z" fill="#1A1A27"/>
</g>
<g filter="url(#filter3_d_333_30)">
<path d="M129.688 26.567C128.366 26.567 127.363 26.2577 126.68 25.639C125.998 24.999 125.656 24.0923 125.656 22.919C125.656 22.407 125.72 21.8523 125.848 21.255L126.104 20.007C126.19 19.6443 126.232 19.2497 126.232 18.823C126.232 17.799 125.848 17.287 125.08 17.287C124.739 17.287 124.376 17.383 123.992 17.575C123.63 17.767 123.203 18.0657 122.712 18.471L121.048 26.375H116.44L121.08 4.61501L125.816 3.97501L123.416 15.239L129.592 10.375H132.76L126.36 14.823C126.68 14.7377 127.032 14.695 127.416 14.695C128.568 14.695 129.443 15.047 130.04 15.751C130.638 16.455 130.936 17.351 130.936 18.439C130.936 18.887 130.894 19.2923 130.808 19.655L130.456 21.255C130.35 21.639 130.296 21.9803 130.296 22.279C130.296 23.0683 130.712 23.463 131.544 23.463C132.184 23.463 132.696 23.239 133.08 22.791C133.464 22.3217 133.848 21.607 134.232 20.647H135.576C134.254 24.5937 132.291 26.567 129.688 26.567Z" fill="#1A1A27"/>
</g>
<g filter="url(#filter4_d_333_30)">
<path d="M104.668 26.567C103.644 26.567 102.812 26.247 102.172 25.607C101.553 24.967 101.244 24.007 101.244 22.727C101.244 22.1937 101.329 21.5003 101.5 20.647L103.676 10.375H108.284L105.98 21.255C105.916 21.575 105.884 21.8737 105.884 22.151C105.884 23.0257 106.204 23.463 106.844 23.463C107.441 23.463 107.953 23.2177 108.38 22.727C108.807 22.215 109.148 21.5217 109.404 20.647L111.58 10.375H116.188L113.884 21.255C113.799 21.575 113.756 21.9163 113.756 22.279C113.756 22.7057 113.852 23.015 114.044 23.207C114.257 23.3777 114.599 23.463 115.068 23.463C115.665 23.463 116.177 23.207 116.604 22.695C117.052 22.183 117.404 21.5003 117.66 20.647H119.004C118.215 22.951 117.233 24.519 116.06 25.351C114.908 26.1617 113.745 26.567 112.572 26.567C111.655 26.567 110.919 26.311 110.364 25.799C109.831 25.287 109.511 24.5297 109.404 23.527C108.679 24.7003 107.911 25.5003 107.1 25.927C106.311 26.3537 105.5 26.567 104.668 26.567Z" fill="#1A1A27"/>
</g>
<g filter="url(#filter5_d_333_30)">
<path d="M92.0571 26.791C90.7771 26.791 89.4758 26.2257 88.1531 25.095L87.8971 26.375H83.2891L87.6411 6.023L92.3771 5.383L88.5371 23.335C89.1345 23.7617 89.7425 23.975 90.3611 23.975C91.5771 23.975 92.6438 23.271 93.5611 21.863C94.4998 20.455 95.2251 18.663 95.7371 16.487C96.2491 14.311 96.5051 12.1137 96.5051 9.895C96.5051 7.80433 96.0891 6.279 95.2571 5.319C94.4465 4.33767 93.3051 3.847 91.8331 3.847C90.2331 3.847 88.7931 4.167 87.5131 4.807C86.2545 5.42567 85.2625 6.32167 84.5371 7.495C83.8118 8.66833 83.4491 10.0443 83.4491 11.623C83.4491 12.4123 83.5238 12.967 83.6731 13.287C83.8225 13.5857 83.8971 13.7563 83.8971 13.799C82.7878 13.799 81.9345 13.5643 81.3371 13.095C80.7611 12.6257 80.4731 11.8683 80.4731 10.823C80.4731 9.37233 81.0171 7.99633 82.1051 6.695C83.1931 5.39367 84.6438 4.34833 86.4571 3.559C88.2918 2.76967 90.2651 2.375 92.3771 2.375C95.2998 2.375 97.4545 3.239 98.8411 4.967C100.228 6.695 100.921 8.903 100.921 11.591C100.921 14.023 100.505 16.423 99.6731 18.791C98.8625 21.1377 97.7745 23.0577 96.4091 24.551C95.0438 26.0443 93.5931 26.791 92.0571 26.791Z" fill="#1A1A27"/>
<path d="M88.3874 26.4731L88.4836 25.9923C89.6548 26.8399 90.8476 27.291 92.0571 27.291C93.7744 27.291 95.3497 26.4507 96.7782 24.8884C98.1985 23.3349 99.3174 21.3518 100.145 18.9554C100.995 16.5363 101.421 14.0808 101.421 11.591C101.421 8.81429 100.703 6.48858 99.2311 4.65407C97.7212 2.77243 95.3994 1.875 92.3771 1.875C90.2012 1.875 88.1602 2.28199 86.2595 3.0997L86.2595 3.0997L86.2576 3.10055C84.3848 3.91575 82.867 5.00423 81.7215 6.37429C80.5717 7.74957 79.9731 9.23579 79.9731 10.823C79.9731 11.9546 80.2868 12.8842 81.0213 13.4826L81.0213 13.4827L81.0282 13.4882C81.7461 14.0522 82.7256 14.299 83.8971 14.299H84.3971V13.799C84.3971 13.6967 84.365 13.606 84.3561 13.5809C84.3557 13.5797 84.3554 13.5787 84.3551 13.5778C84.3398 13.5341 84.3202 13.4865 84.2992 13.4386C84.2574 13.3431 84.1982 13.2192 84.1238 13.0703C84.0262 12.8565 83.9491 12.4015 83.9491 11.623C83.9491 10.1235 84.2927 8.84135 84.9624 7.75791C85.6375 6.66593 86.5579 5.83366 87.7337 5.25573L87.7337 5.25574L87.7368 5.25421C88.9395 4.65285 90.3015 4.347 91.8331 4.347C93.1821 4.347 94.1714 4.78979 94.8717 5.63744L94.8716 5.63753L94.8793 5.64647C95.5954 6.47274 96.0051 7.85226 96.0051 9.895C96.0051 12.0748 95.7537 14.2337 95.2504 16.3725C94.748 18.508 94.042 20.2404 93.1451 21.5857L93.1451 21.5856L93.1422 21.5901C92.2784 22.9158 91.3477 23.475 90.3611 23.475C89.95 23.475 89.5304 23.3588 89.0978 23.1041L92.8661 5.48759L93.0148 4.79229L92.3102 4.88751L87.5742 5.5275L87.2257 5.57459L87.1522 5.91845L82.8002 26.2704L82.6709 26.875H83.2891H87.8971H88.307L88.3874 26.4731Z" stroke="black"/>
</g>
<g filter="url(#filter6_d_333_30)">
<path d="M70.5544 34.375C69.5517 34.375 68.6664 34.0443 67.8984 33.383C67.1517 32.743 66.7784 31.9217 66.7784 30.919C66.7784 29.9803 67.0131 29.2123 67.4824 28.615C67.9517 28.0177 68.5597 27.5483 69.3064 27.207C70.0531 26.8657 71.0557 26.503 72.3144 26.119L72.6344 24.711C71.5464 25.9483 70.2451 26.567 68.7304 26.567C67.7064 26.567 66.8744 26.247 66.2344 25.607C65.6157 24.967 65.3064 24.007 65.3064 22.727C65.3064 22.1937 65.3917 21.5003 65.5624 20.647L67.7384 10.375H72.3464L70.0424 21.255C69.9784 21.511 69.9464 21.7777 69.9464 22.055C69.9464 22.9937 70.2664 23.463 70.9064 23.463C71.5037 23.463 72.0157 23.2177 72.4424 22.727C72.8691 22.215 73.2104 21.5217 73.4664 20.647L75.6424 10.375H80.2824L76.3784 28.935C75.9517 30.983 75.1944 32.4017 74.1064 33.191C73.0397 33.9803 71.8557 34.375 70.5544 34.375ZM69.8184 31.527C70.2024 31.527 70.5651 31.3243 70.9064 30.919C71.2477 30.535 71.5144 29.9057 71.7064 29.031L72.0904 27.143C70.9597 27.527 70.0851 27.975 69.4664 28.487C68.8477 28.999 68.5384 29.6603 68.5384 30.471C68.5384 30.727 68.6664 30.9617 68.9224 31.175C69.1784 31.4097 69.4771 31.527 69.8184 31.527Z" fill="#1A1A27"/>
</g>
<g filter="url(#filter7_d_333_30)">
<path d="M50.647 4.391C49.0257 4.92433 47.767 5.80967 46.871 7.047C45.9964 8.263 45.559 9.77767 45.559 11.591C45.559 12.4017 45.6337 12.9563 45.783 13.255C45.9324 13.5537 46.007 13.735 46.007 13.799C43.7244 13.799 42.583 12.8283 42.583 10.887C42.583 9.56433 43.0844 8.24167 44.087 6.919C45.111 5.575 46.4124 4.487 47.991 3.655C49.591 2.80167 51.1804 2.375 52.759 2.375C53.5484 2.375 54.359 2.52433 55.191 2.823L54.455 19.687L61.495 2.823H66.103L62.743 26.375H58.135L60.183 12.007L54.167 26.375H49.783L50.423 11.943L45.079 26.375H42.519L50.647 4.391Z" fill="#1A1A27"/>
<path d="M49.7819 15.1143L49.2835 26.3528L49.2604 26.875H49.783H54.167H54.4997L54.6282 26.5681L59.1375 15.7986L57.64 26.3044L57.5587 26.875H58.135H62.743H63.1768L63.238 26.4456L66.598 2.89362L66.6794 2.323H66.103H61.495H61.162L61.0336 2.63038L55.0772 16.8987L55.6906 2.8448L55.7066 2.47684L55.36 2.3524C54.4802 2.03659 53.6124 1.875 52.759 1.875C51.0872 1.875 49.418 2.32746 47.7568 3.21326C46.118 4.07715 44.7596 5.21122 43.6893 6.61598L43.6886 6.61695C42.6371 8.00405 42.083 9.43007 42.083 10.887C42.083 11.9578 42.4016 12.8451 43.1151 13.4519C43.8131 14.0455 44.8066 14.299 46.007 14.299H46.4507L42.0501 26.2016L41.8011 26.875H42.519H45.079H45.4271L45.5479 26.5486L49.7819 15.1143ZM49.7881 5.27237L46.507 14.1467V13.799C46.507 13.7058 46.4837 13.6239 46.4714 13.5834C46.4557 13.5319 46.4353 13.4778 46.4134 13.4246C46.3693 13.3176 46.3072 13.1852 46.2303 13.0314C46.1913 12.9535 46.1448 12.8027 46.1106 12.5483C46.0772 12.3005 46.059 11.983 46.059 11.591C46.059 9.86027 46.4752 8.45385 47.2765 7.33963C47.9103 6.46459 48.7433 5.77422 49.7881 5.27237Z" stroke="black"/>
</g>
<g filter="url(#filter8_d_333_30)">
<path d="M135.915 26.567C134.699 26.567 133.685 26.151 132.875 25.319C132.064 24.487 131.659 23.1857 131.659 21.415C131.659 19.8363 131.968 18.183 132.587 16.455C133.227 14.7057 134.165 13.2337 135.403 12.039C136.661 10.823 138.155 10.215 139.883 10.215C140.757 10.215 141.408 10.3643 141.835 10.663C142.261 10.9617 142.475 11.3563 142.475 11.847V12.071L142.827 10.375H147.435L145.131 21.255C145.045 21.575 145.003 21.9163 145.003 22.279C145.003 22.7057 145.099 23.015 145.291 23.207C145.504 23.3777 145.845 23.463 146.315 23.463C146.613 23.463 146.848 23.4203 147.019 23.335C146.549 24.5297 146.101 25.3723 145.675 25.863C145.248 26.3323 144.629 26.567 143.819 26.567C142.944 26.567 142.229 26.311 141.675 25.799C141.141 25.2657 140.811 24.5297 140.683 23.591C139.381 25.575 137.792 26.567 135.915 26.567ZM137.995 23.463C138.528 23.463 139.051 23.2177 139.563 22.727C140.096 22.215 140.459 21.5217 140.651 20.647L142.187 13.415C142.187 13.1377 142.08 12.871 141.867 12.615C141.653 12.3377 141.323 12.199 140.875 12.199C140.021 12.199 139.253 12.7003 138.571 13.703C137.888 14.6843 137.355 15.879 136.971 17.287C136.587 18.6737 136.395 19.9003 136.395 20.967C136.395 22.0337 136.544 22.7163 136.843 23.015C137.163 23.3137 137.547 23.463 137.995 23.463Z" fill="white"/>
</g>
<g filter="url(#filter9_d_333_30)">
<path d="M127.544 26.567C126.221 26.567 125.219 26.2577 124.536 25.639C123.853 24.999 123.512 24.0923 123.512 22.919C123.512 22.407 123.576 21.8523 123.704 21.255L123.96 20.007C124.045 19.6443 124.088 19.2497 124.088 18.823C124.088 17.799 123.704 17.287 122.936 17.287C122.595 17.287 122.232 17.383 121.848 17.575C121.485 17.767 121.059 18.0657 120.568 18.471L118.904 26.375H114.296L118.936 4.61501L123.672 3.97501L121.272 15.239L127.448 10.375H130.616L124.216 14.823C124.536 14.7377 124.888 14.695 125.272 14.695C126.424 14.695 127.299 15.047 127.896 15.751C128.493 16.455 128.792 17.351 128.792 18.439C128.792 18.887 128.749 19.2923 128.664 19.655L128.312 21.255C128.205 21.639 128.152 21.9803 128.152 22.279C128.152 23.0683 128.568 23.463 129.4 23.463C130.04 23.463 130.552 23.239 130.936 22.791C131.32 22.3217 131.704 21.607 132.088 20.647H133.432C132.109 24.5937 130.147 26.567 127.544 26.567Z" fill="white"/>
</g>
<g filter="url(#filter10_d_333_30)">
<path d="M102.524 26.567C101.5 26.567 100.668 26.247 100.028 25.607C99.4092 24.967 99.0999 24.007 99.0999 22.727C99.0999 22.1937 99.1852 21.5003 99.3559 20.647L101.532 10.375H106.14L103.836 21.255C103.772 21.575 103.74 21.8737 103.74 22.151C103.74 23.0257 104.06 23.463 104.7 23.463C105.297 23.463 105.809 23.2177 106.236 22.727C106.663 22.215 107.004 21.5217 107.26 20.647L109.436 10.375H114.044L111.74 21.255C111.655 21.575 111.612 21.9163 111.612 22.279C111.612 22.7057 111.708 23.015 111.9 23.207C112.113 23.3777 112.455 23.463 112.924 23.463C113.521 23.463 114.033 23.207 114.46 22.695C114.908 22.183 115.26 21.5003 115.516 20.647H116.86C116.071 22.951 115.089 24.519 113.916 25.351C112.764 26.1617 111.601 26.567 110.428 26.567C109.511 26.567 108.775 26.311 108.22 25.799C107.687 25.287 107.367 24.5297 107.26 23.527C106.535 24.7003 105.767 25.5003 104.956 25.927C104.167 26.3537 103.356 26.567 102.524 26.567Z" fill="white"/>
</g>
<g filter="url(#filter11_d_333_30)">
<path d="M89.9131 26.791C88.6331 26.791 87.3318 26.2257 86.0091 25.095L85.7531 26.375H81.1451L85.4971 6.023L90.2331 5.383L86.3931 23.335C86.9904 23.7617 87.5984 23.975 88.2171 23.975C89.4331 23.975 90.4998 23.271 91.4171 21.863C92.3558 20.455 93.0811 18.663 93.5931 16.487C94.1051 14.311 94.3611 12.1137 94.3611 9.895C94.3611 7.80433 93.9451 6.279 93.1131 5.319C92.3024 4.33767 91.1611 3.847 89.6891 3.847C88.0891 3.847 86.6491 4.167 85.3691 4.807C84.1104 5.42567 83.1184 6.32167 82.3931 7.495C81.6678 8.66833 81.3051 10.0443 81.3051 11.623C81.3051 12.4123 81.3798 12.967 81.5291 13.287C81.6784 13.5857 81.7531 13.7563 81.7531 13.799C80.6438 13.799 79.7904 13.5643 79.1931 13.095C78.6171 12.6257 78.3291 11.8683 78.3291 10.823C78.3291 9.37233 78.8731 7.99633 79.9611 6.695C81.0491 5.39367 82.4998 4.34833 84.3131 3.559C86.1478 2.76967 88.1211 2.375 90.2331 2.375C93.1558 2.375 95.3104 3.239 96.6971 4.967C98.0838 6.695 98.7771 8.903 98.7771 11.591C98.7771 14.023 98.3611 16.423 97.5291 18.791C96.7184 21.1377 95.6304 23.0577 94.2651 24.551C92.8998 26.0443 91.4491 26.791 89.9131 26.791Z" fill="white"/>
<path d="M86.2434 26.4731L86.3395 25.9923C87.5107 26.8399 88.7035 27.291 89.9131 27.291C91.6304 27.291 93.2057 26.4507 94.6341 24.8884C96.0545 23.3349 97.1733 21.3518 98.0013 18.9554C98.8511 16.5363 99.2771 14.0808 99.2771 11.591C99.2771 8.81429 98.5592 6.48858 97.0871 4.65407C95.5771 2.77243 93.2553 1.875 90.2331 1.875C88.0571 1.875 86.0161 2.28199 84.1155 3.0997L84.1155 3.0997L84.1135 3.10055C82.2408 3.91575 80.723 5.00423 79.5775 6.37429C78.4277 7.74957 77.8291 9.23579 77.8291 10.823C77.8291 11.9546 78.1428 12.8842 78.8773 13.4826L78.8772 13.4827L78.8842 13.4882C79.6021 14.0522 80.5815 14.299 81.7531 14.299H82.2531V13.799C82.2531 13.6967 82.221 13.606 82.2121 13.5809C82.2117 13.5797 82.2113 13.5787 82.211 13.5778C82.1957 13.5341 82.1761 13.4865 82.1552 13.4386C82.1134 13.3431 82.0542 13.2192 81.9798 13.0703C81.8822 12.8565 81.8051 12.4015 81.8051 11.623C81.8051 10.1235 82.1486 8.84135 82.8184 7.75791C83.4934 6.66593 84.4139 5.83366 85.5897 5.25573L85.5897 5.25574L85.5927 5.25421C86.7954 4.65285 88.1575 4.347 89.6891 4.347C91.038 4.347 92.0274 4.78979 92.7276 5.63744L92.7275 5.63753L92.7353 5.64647C93.4514 6.47274 93.8611 7.85226 93.8611 9.895C93.8611 12.0748 93.6096 14.2337 93.1064 16.3725C92.6039 18.508 91.8979 20.2404 91.0011 21.5857L91.0011 21.5856L90.9982 21.5901C90.1344 22.9158 89.2036 23.475 88.2171 23.475C87.806 23.475 87.3864 23.3588 86.9538 23.1041L90.722 5.48759L90.8708 4.79229L90.1661 4.88751L85.4301 5.5275L85.0817 5.57459L85.0082 5.91845L80.6562 26.2704L80.5269 26.875H81.1451H85.7531H86.163L86.2434 26.4731Z" stroke="#B3DDF5"/>
</g>
<g filter="url(#filter12_d_333_30)">
<path d="M68.4104 34.375C67.4077 34.375 66.5224 34.0443 65.7544 33.383C65.0077 32.743 64.6344 31.9217 64.6344 30.919C64.6344 29.9803 64.869 29.2123 65.3384 28.615C65.8077 28.0177 66.4157 27.5483 67.1624 27.207C67.909 26.8657 68.9117 26.503 70.1704 26.119L70.4904 24.711C69.4024 25.9483 68.101 26.567 66.5864 26.567C65.5624 26.567 64.7304 26.247 64.0904 25.607C63.4717 24.967 63.1624 24.007 63.1624 22.727C63.1624 22.1937 63.2477 21.5003 63.4184 20.647L65.5944 10.375H70.2024L67.8984 21.255C67.8344 21.511 67.8024 21.7777 67.8024 22.055C67.8024 22.9937 68.1224 23.463 68.7624 23.463C69.3597 23.463 69.8717 23.2177 70.2984 22.727C70.725 22.215 71.0664 21.5217 71.3224 20.647L73.4984 10.375H78.1384L74.2344 28.935C73.8077 30.983 73.0504 32.4017 71.9624 33.191C70.8957 33.9803 69.7117 34.375 68.4104 34.375ZM67.6744 31.527C68.0584 31.527 68.421 31.3243 68.7624 30.919C69.1037 30.535 69.3704 29.9057 69.5624 29.031L69.9464 27.143C68.8157 27.527 67.941 27.975 67.3224 28.487C66.7037 28.999 66.3944 29.6603 66.3944 30.471C66.3944 30.727 66.5224 30.9617 66.7784 31.175C67.0344 31.4097 67.333 31.527 67.6744 31.527Z" fill="white"/>
</g>
<g filter="url(#filter13_d_333_30)">
<path d="M48.503 4.391C46.8817 4.92433 45.623 5.80967 44.727 7.047C43.8523 8.263 43.415 9.77767 43.415 11.591C43.415 12.4017 43.4897 12.9563 43.639 13.255C43.7883 13.5537 43.863 13.735 43.863 13.799C41.5803 13.799 40.439 12.8283 40.439 10.887C40.439 9.56433 40.9403 8.24167 41.943 6.919C42.967 5.575 44.2683 4.487 45.847 3.655C47.447 2.80167 49.0363 2.375 50.615 2.375C51.4043 2.375 52.215 2.52433 53.047 2.823L52.311 19.687L59.351 2.823H63.959L60.599 26.375H55.991L58.039 12.007L52.023 26.375H47.639L48.279 11.943L42.935 26.375H40.375L48.503 4.391Z" fill="white"/>
<path d="M47.6379 15.1143L47.1395 26.3528L47.1163 26.875H47.639H52.023H52.3557L52.4842 26.5681L56.9935 15.7986L55.496 26.3044L55.4147 26.875H55.991H60.599H61.0327L61.094 26.4456L64.454 2.89362L64.5354 2.323H63.959H59.351H59.0179L58.8896 2.63038L52.9332 16.8987L53.5465 2.8448L53.5626 2.47684L53.2159 2.3524C52.3362 2.03659 51.4684 1.875 50.615 1.875C48.9431 1.875 47.274 2.32746 45.6128 3.21326C43.9739 4.07715 42.6156 5.21122 41.5453 6.61598L41.5445 6.61695C40.493 8.00405 39.939 9.43007 39.939 10.887C39.939 11.9578 40.2576 12.8451 40.9711 13.4519C41.6691 14.0455 42.6626 14.299 43.863 14.299H44.3067L39.906 26.2016L39.6571 26.875H40.375H42.935H43.283L43.4039 26.5486L47.6379 15.1143ZM47.6441 5.27237L44.363 14.1467V13.799C44.363 13.7058 44.3397 13.6239 44.3273 13.5834C44.3117 13.5319 44.2912 13.4778 44.2693 13.4246C44.2253 13.3176 44.1631 13.1852 44.0862 13.0314C44.0473 12.9535 44.0008 12.8027 43.9665 12.5483C43.9332 12.3005 43.915 11.983 43.915 11.591C43.915 9.86027 44.3312 8.45385 45.1324 7.33963C45.7662 6.46459 46.5993 5.77422 47.6441 5.27237Z" stroke="#B3DDF5"/>
</g>
<defs>
<filter id="filter0_d_333_30" x="3.25" y="1.25" width="37.25" height="37.25" filterUnits="userSpaceOnUse" color-interpolation-filters="sRGB">
<feFlood flood-opacity="0" result="BackgroundImageFix"/>
<feColorMatrix in="SourceAlpha" type="matrix" values="0 0 0 0 0 0 0 0 0 0 0 0 0 0 0 0 0 0 127 0" result="hardAlpha"/>
<feOffset dy="4"/>
<feGaussianBlur stdDeviation="2"/>
<feComposite in2="hardAlpha" operator="out"/>
<feColorMatrix type="matrix" values="0 0 0 0 0 0 0 0 0 0 0 0 0 0 0 0 0 0 0.25 0"/>
<feBlend mode="normal" in2="BackgroundImageFix" result="effect1_dropShadow_333_30"/>
<feBlend mode="normal" in="SourceGraphic" in2="effect1_dropShadow_333_30" result="shape"/>
</filter>
<filter id="filter1_d_333_30" x="0.25" y="0.25" width="37.25" height="37.25" filterUnits="userSpaceOnUse" color-interpolation-filters="sRGB">
<feFlood flood-opacity="0" result="BackgroundImageFix"/>
<feColorMatrix in="SourceAlpha" type="matrix" values="0 0 0 0 0 0 0 0 0 0 0 0 0 0 0 0 0 0 127 0" result="hardAlpha"/>
<feOffset dy="4"/>
<feGaussianBlur stdDeviation="2"/>
<feComposite in2="hardAlpha" operator="out"/>
<feColorMatrix type="matrix" values="0 0 0 0 0 0 0 0 0 0 0 0 0 0 0 0 0 0 0.25 0"/>
<feBlend mode="normal" in2="BackgroundImageFix" result="effect1_dropShadow_333_30"/>
<feBlend mode="normal" in="SourceGraphic" in2="effect1_dropShadow_333_30" result="shape"/>
</filter>
<filter id="filter2_d_333_30" x="129.803" y="10.215" width="23.7759" height="24.352" filterUnits="userSpaceOnUse" color-interpolation-filters="sRGB">
<feFlood flood-opacity="0" result="BackgroundImageFix"/>
<feColorMatrix in="SourceAlpha" type="matrix" values="0 0 0 0 0 0 0 0 0 0 0 0 0 0 0 0 0 0 127 0" result="hardAlpha"/>
<feOffset dy="4"/>
<feGaussianBlur stdDeviation="2"/>
<feComposite in2="hardAlpha" operator="out"/>
<feColorMatrix type="matrix" values="0 0 0 0 0 0 0 0 0 0 0 0 0 0 0 0 0 0 0.25 0"/>
<feBlend mode="normal" in2="BackgroundImageFix" result="effect1_dropShadow_333_30"/>
<feBlend mode="normal" in="SourceGraphic" in2="effect1_dropShadow_333_30" result="shape"/>
</filter>
<filter id="filter3_d_333_30" x="112.44" y="3.97501" width="27.136" height="30.592" filterUnits="userSpaceOnUse" color-interpolation-filters="sRGB">
<feFlood flood-opacity="0" result="BackgroundImageFix"/>
<feColorMatrix in="SourceAlpha" type="matrix" values="0 0 0 0 0 0 0 0 0 0 0 0 0 0 0 0 0 0 127 0" result="hardAlpha"/>
<feOffset dy="4"/>
<feGaussianBlur stdDeviation="2"/>
<feComposite in2="hardAlpha" operator="out"/>
<feColorMatrix type="matrix" values="0 0 0 0 0 0 0 0 0 0 0 0 0 0 0 0 0 0 0.25 0"/>
<feBlend mode="normal" in2="BackgroundImageFix" result="effect1_dropShadow_333_30"/>
<feBlend mode="normal" in="SourceGraphic" in2="effect1_dropShadow_333_30" result="shape"/>
</filter>
<filter id="filter4_d_333_30" x="97.2439" y="10.375" width="25.76" height="24.192" filterUnits="userSpaceOnUse" color-interpolation-filters="sRGB">
<feFlood flood-opacity="0" result="BackgroundImageFix"/>
<feColorMatrix in="SourceAlpha" type="matrix" values="0 0 0 0 0 0 0 0 0 0 0 0 0 0 0 0 0 0 127 0" result="hardAlpha"/>
<feOffset dy="4"/>
<feGaussianBlur stdDeviation="2"/>
<feComposite in2="hardAlpha" operator="out"/>
<feColorMatrix type="matrix" values="0 0 0 0 0 0 0 0 0 0 0 0 0 0 0 0 0 0 0.25 0"/>
<feBlend mode="normal" in2="BackgroundImageFix" result="effect1_dropShadow_333_30"/>
<feBlend mode="normal" in="SourceGraphic" in2="effect1_dropShadow_333_30" result="shape"/>
</filter>
<filter id="filter5_d_333_30" x="75.4731" y="1.375" width="30.448" height="34.416" filterUnits="userSpaceOnUse" color-interpolation-filters="sRGB">
<feFlood flood-opacity="0" result="BackgroundImageFix"/>
<feColorMatrix in="SourceAlpha" type="matrix" values="0 0 0 0 0 0 0 0 0 0 0 0 0 0 0 0 0 0 127 0" result="hardAlpha"/>
<feOffset dy="4"/>
<feGaussianBlur stdDeviation="2"/>
<feComposite in2="hardAlpha" operator="out"/>
<feColorMatrix type="matrix" values="0 0 0 0 0 0 0 0 0 0 0 0 0 0 0 0 0 0 0.25 0"/>
<feBlend mode="normal" in2="BackgroundImageFix" result="effect1_dropShadow_333_30"/>
<feBlend mode="normal" in="SourceGraphic" in2="effect1_dropShadow_333_30" result="shape"/>
</filter>
<filter id="filter6_d_333_30" x="61.3064" y="10.375" width="22.9761" height="32" filterUnits="userSpaceOnUse" color-interpolation-filters="sRGB">
<feFlood flood-opacity="0" result="BackgroundImageFix"/>
<feColorMatrix in="SourceAlpha" type="matrix" values="0 0 0 0 0 0 0 0 0 0 0 0 0 0 0 0 0 0 127 0" result="hardAlpha"/>
<feOffset dy="4"/>
<feGaussianBlur stdDeviation="2"/>
<feComposite in2="hardAlpha" operator="out"/>
<feColorMatrix type="matrix" values="0 0 0 0 0 0 0 0 0 0 0 0 0 0 0 0 0 0 0.25 0"/>
<feBlend mode="normal" in2="BackgroundImageFix" result="effect1_dropShadow_333_30"/>
<feBlend mode="normal" in="SourceGraphic" in2="effect1_dropShadow_333_30" result="shape"/>
</filter>
<filter id="filter7_d_333_30" x="37.0833" y="1.375" width="34.1726" height="34" filterUnits="userSpaceOnUse" color-interpolation-filters="sRGB">
<feFlood flood-opacity="0" result="BackgroundImageFix"/>
<feColorMatrix in="SourceAlpha" type="matrix" values="0 0 0 0 0 0 0 0 0 0 0 0 0 0 0 0 0 0 127 0" result="hardAlpha"/>
<feOffset dy="4"/>
<feGaussianBlur stdDeviation="2"/>
<feComposite in2="hardAlpha" operator="out"/>
<feColorMatrix type="matrix" values="0 0 0 0 0 0 0 0 0 0 0 0 0 0 0 0 0 0 0.25 0"/>
<feBlend mode="normal" in2="BackgroundImageFix" result="effect1_dropShadow_333_30"/>
<feBlend mode="normal" in="SourceGraphic" in2="effect1_dropShadow_333_30" result="shape"/>
</filter>
<filter id="filter8_d_333_30" x="127.659" y="10.215" width="23.7759" height="24.352" filterUnits="userSpaceOnUse" color-interpolation-filters="sRGB">
<feFlood flood-opacity="0" result="BackgroundImageFix"/>
<feColorMatrix in="SourceAlpha" type="matrix" values="0 0 0 0 0 0 0 0 0 0 0 0 0 0 0 0 0 0 127 0" result="hardAlpha"/>
<feOffset dy="4"/>
<feGaussianBlur stdDeviation="2"/>
<feComposite in2="hardAlpha" operator="out"/>
<feColorMatrix type="matrix" values="0 0 0 0 0 0 0 0 0 0 0 0 0 0 0 0 0 0 0.25 0"/>
<feBlend mode="normal" in2="BackgroundImageFix" result="effect1_dropShadow_333_30"/>
<feBlend mode="normal" in="SourceGraphic" in2="effect1_dropShadow_333_30" result="shape"/>
</filter>
<filter id="filter9_d_333_30" x="110.296" y="3.97501" width="27.136" height="30.592" filterUnits="userSpaceOnUse" color-interpolation-filters="sRGB">
<feFlood flood-opacity="0" result="BackgroundImageFix"/>
<feColorMatrix in="SourceAlpha" type="matrix" values="0 0 0 0 0 0 0 0 0 0 0 0 0 0 0 0 0 0 127 0" result="hardAlpha"/>
<feOffset dy="4"/>
<feGaussianBlur stdDeviation="2"/>
<feComposite in2="hardAlpha" operator="out"/>
<feColorMatrix type="matrix" values="0 0 0 0 0 0 0 0 0 0 0 0 0 0 0 0 0 0 0.25 0"/>
<feBlend mode="normal" in2="BackgroundImageFix" result="effect1_dropShadow_333_30"/>
<feBlend mode="normal" in="SourceGraphic" in2="effect1_dropShadow_333_30" result="shape"/>
</filter>
<filter id="filter10_d_333_30" x="95.0999" y="10.375" width="25.76" height="24.192" filterUnits="userSpaceOnUse" color-interpolation-filters="sRGB">
<feFlood flood-opacity="0" result="BackgroundImageFix"/>
<feColorMatrix in="SourceAlpha" type="matrix" values="0 0 0 0 0 0 0 0 0 0 0 0 0 0 0 0 0 0 127 0" result="hardAlpha"/>
<feOffset dy="4"/>
<feGaussianBlur stdDeviation="2"/>
<feComposite in2="hardAlpha" operator="out"/>
<feColorMatrix type="matrix" values="0 0 0 0 0 0 0 0 0 0 0 0 0 0 0 0 0 0 0.25 0"/>
<feBlend mode="normal" in2="BackgroundImageFix" result="effect1_dropShadow_333_30"/>
<feBlend mode="normal" in="SourceGraphic" in2="effect1_dropShadow_333_30" result="shape"/>
</filter>
<filter id="filter11_d_333_30" x="73.3291" y="1.375" width="30.448" height="34.416" filterUnits="userSpaceOnUse" color-interpolation-filters="sRGB">
<feFlood flood-opacity="0" result="BackgroundImageFix"/>
<feColorMatrix in="SourceAlpha" type="matrix" values="0 0 0 0 0 0 0 0 0 0 0 0 0 0 0 0 0 0 127 0" result="hardAlpha"/>
<feOffset dy="4"/>
<feGaussianBlur stdDeviation="2"/>
<feComposite in2="hardAlpha" operator="out"/>
<feColorMatrix type="matrix" values="0 0 0 0 0 0 0 0 0 0 0 0 0 0 0 0 0 0 0.25 0"/>
<feBlend mode="normal" in2="BackgroundImageFix" result="effect1_dropShadow_333_30"/>
<feBlend mode="normal" in="SourceGraphic" in2="effect1_dropShadow_333_30" result="shape"/>
</filter>
<filter id="filter12_d_333_30" x="59.1624" y="10.375" width="22.9761" height="32" filterUnits="userSpaceOnUse" color-interpolation-filters="sRGB">
<feFlood flood-opacity="0" result="BackgroundImageFix"/>
<feColorMatrix in="SourceAlpha" type="matrix" values="0 0 0 0 0 0 0 0 0 0 0 0 0 0 0 0 0 0 127 0" result="hardAlpha"/>
<feOffset dy="4"/>
<feGaussianBlur stdDeviation="2"/>
<feComposite in2="hardAlpha" operator="out"/>
<feColorMatrix type="matrix" values="0 0 0 0 0 0 0 0 0 0 0 0 0 0 0 0 0 0 0.25 0"/>
<feBlend mode="normal" in2="BackgroundImageFix" result="effect1_dropShadow_333_30"/>
<feBlend mode="normal" in="SourceGraphic" in2="effect1_dropShadow_333_30" result="shape"/>
</filter>
<filter id="filter13_d_333_30" x="34.9392" y="1.375" width="34.1726" height="34" filterUnits="userSpaceOnUse" color-interpolation-filters="sRGB">
<feFlood flood-opacity="0" result="BackgroundImageFix"/>
<feColorMatrix in="SourceAlpha" type="matrix" values="0 0 0 0 0 0 0 0 0 0 0 0 0 0 0 0 0 0 127 0" result="hardAlpha"/>
<feOffset dy="4"/>
<feGaussianBlur stdDeviation="2"/>
<feComposite in2="hardAlpha" operator="out"/>
<feColorMatrix type="matrix" values="0 0 0 0 0 0 0 0 0 0 0 0 0 0 0 0 0 0 0.25 0"/>
<feBlend mode="normal" in2="BackgroundImageFix" result="effect1_dropShadow_333_30"/>
<feBlend mode="normal" in="SourceGraphic" in2="effect1_dropShadow_333_30" result="shape"/>
</filter>
</defs>
</svg>
