<svg version="1.1" id="Layer_1" xmlns="http://www.w3.org/2000/svg" xmlns:xlink="http://www.w3.org/1999/xlink" x="0px" y="0px"
	 width="100%" viewBox="0 0 1024 1024" enable-background="new 0 0 1024 1024" xml:space="preserve">
<path fill="#000000" opacity="1.000000" stroke="none" 
	d="
M487.000000,197.999268 
	C548.830078,197.966873 610.160217,197.973450 671.490112,197.843414 
	C677.946228,197.829727 684.273743,199.859177 690.793762,198.742493 
	C691.654053,198.595139 692.750854,199.828232 694.203979,200.702179 
	C694.104004,197.771515 696.043152,197.846573 698.047974,197.847366 
	C729.348328,197.859680 760.677124,197.095428 791.932800,198.274750 
	C802.059204,198.656815 811.982483,197.089264 822.017029,197.779312 
	C827.484741,198.155304 828.007812,198.544357 826.112671,203.596878 
	C811.551758,242.418854 796.956360,281.227844 782.378113,320.043335 
	C769.674500,353.867767 756.982483,387.696594 744.270264,421.517792 
	C743.701538,423.030731 743.539001,424.805206 741.288818,426.107239 
	C735.868286,422.004791 729.570251,418.730560 727.451111,411.009491 
	C725.917175,405.420624 716.406372,400.375275 710.258057,401.763092 
	C698.467773,404.424408 688.480225,410.700165 678.991638,417.912323 
	C677.537659,419.017426 676.215820,421.581909 673.993225,419.989655 
	C672.047180,418.595520 672.915405,416.428772 673.829346,414.527954 
	C674.592529,412.940430 673.608459,411.639587 672.855530,410.352997 
	C669.672913,404.914612 660.565125,400.635071 654.381592,401.786316 
	C647.833008,403.005554 641.259766,404.154816 634.792969,405.727631 
	C631.004089,406.649170 628.656128,405.761078 627.354309,402.092987 
	C627.077759,401.313934 626.610168,400.603943 626.246338,399.854523 
	C622.846313,392.851807 616.781738,392.090912 611.586853,398.031586 
	C611.040710,398.656128 610.427917,399.299438 610.123901,400.047028 
	C605.843872,410.574585 597.030945,412.723358 586.944031,412.971039 
	C580.477539,413.129883 575.099060,412.670197 570.031738,407.089722 
	C564.361328,400.845032 555.969055,401.889832 547.931274,402.988495 
	C538.278931,404.307831 532.083801,409.641022 527.248657,417.543335 
	C522.815979,424.787903 518.030762,431.817108 513.381775,438.928741 
	C512.510254,440.261932 512.075012,442.032837 510.026062,442.453186 
	C508.135010,440.747253 508.122223,438.275940 507.754303,436.091644 
	C505.664520,423.686035 496.478821,417.854828 486.442780,412.786346 
	C483.750854,411.426880 481.551575,412.679291 479.707672,414.548370 
	C464.086853,430.382233 449.401825,446.871094 440.557159,467.743317 
	C436.006531,478.482117 438.271729,487.921417 445.045349,496.680450 
	C448.785248,501.516510 455.231140,501.196625 458.265472,495.843445 
	C466.393127,481.504517 473.306610,466.581940 478.837006,451.029755 
	C480.440186,446.521423 483.459900,443.154449 487.884644,440.744019 
	C490.329346,444.178223 489.168610,447.563721 489.184143,450.745483 
	C489.242401,462.686951 490.106110,474.603027 491.630890,486.403748 
	C492.958221,496.676208 497.923218,499.165619 508.096832,500.927795 
	C514.981323,502.120270 516.337891,499.052704 518.070679,494.294373 
	C520.235474,488.349609 522.523254,482.440155 525.035339,476.635498 
	C526.216675,473.905762 525.904297,469.931427 530.854980,469.789246 
	C532.412537,469.744507 532.641235,466.427277 532.607544,464.481781 
	C532.432861,454.387909 538.228699,447.077545 543.979919,439.761719 
	C548.006531,434.639679 552.666870,430.098053 557.533813,425.780365 
	C558.996338,424.482880 560.291199,422.830719 562.872375,422.585724 
	C564.189209,425.837372 565.531311,429.170349 566.888367,432.497192 
	C568.352051,436.085419 570.996033,437.470703 574.832581,436.953064 
	C578.618103,436.442291 582.424133,435.885620 586.232361,435.789459 
	C591.421326,435.658478 591.858765,436.528809 589.843750,441.248840 
	C585.331055,451.819519 580.760376,462.388824 577.558594,473.437225 
	C575.155090,481.730743 577.588257,489.652191 581.672119,496.760651 
	C583.857849,500.565308 588.697083,499.817383 592.668884,499.720978 
	C595.812073,499.644653 596.013855,496.951202 596.746460,494.802673 
	C599.808167,485.823761 602.822510,476.828552 605.930115,467.865601 
	C606.435364,466.408447 606.858398,464.964264 606.545044,463.480164 
	C606.102234,461.382629 606.698303,460.158997 608.682434,459.106506 
	C611.725525,457.492371 612.706177,454.265106 613.452576,451.203796 
	C614.568115,446.628510 616.732971,442.489685 618.381836,438.139679 
	C619.390747,435.477844 621.211304,433.507660 624.095825,433.077667 
	C637.389404,431.096130 650.298096,426.715454 663.902405,426.682129 
	C665.044800,426.679321 666.187195,426.681732 667.674927,426.681732 
	C667.401550,429.415375 665.437683,430.858765 664.090393,432.567993 
	C654.250122,445.052032 649.441772,458.862640 652.271057,474.915802 
	C653.183044,480.090393 655.249695,484.377380 659.439880,487.603455 
	C661.947876,489.534393 664.378235,491.566040 666.878479,493.507324 
	C676.094666,500.663208 689.233398,499.985504 698.000366,491.885376 
	C698.762207,491.181519 699.413269,490.641541 700.572205,490.709656 
	C706.776855,491.074524 711.224731,487.065399 716.129089,484.255402 
	C717.331055,483.566711 718.088623,481.493317 719.806763,482.785950 
	C721.339355,483.939026 720.277222,485.549011 719.768311,486.905762 
	C715.089539,499.378967 710.385132,511.842560 705.689270,524.309387 
	C705.337097,525.244446 704.990540,526.181641 704.647156,527.119934 
	C701.219910,536.484924 701.210205,536.414307 710.770386,535.050598 
	C715.259155,534.410278 719.195312,535.653625 722.830139,539.746582 
	C711.446472,542.920593 701.719666,548.210632 692.697693,554.791992 
	C680.212769,563.899597 669.973328,574.835815 665.018677,589.888184 
	C661.293030,601.207092 661.181152,612.430481 666.431091,623.552246 
	C663.411499,626.070374 660.092651,625.510925 656.900085,624.824585 
	C651.747986,623.716980 647.310974,621.084839 643.279297,617.747803 
	C635.302673,611.145447 628.218384,603.611816 620.922546,596.299500 
	C620.215698,595.591064 619.530029,594.841309 619.701782,592.649414 
	C627.669861,591.205017 631.492798,583.031677 639.398315,579.628784 
	C645.924438,576.819580 651.629700,570.889954 655.760376,564.597351 
	C659.575989,558.784668 654.812073,548.739624 647.641113,546.324646 
	C640.049683,543.768005 632.284302,543.015259 624.557556,545.475769 
	C620.361633,546.811829 617.387939,547.170776 617.305420,541.431763 
	C617.287292,540.173096 616.604065,538.858154 616.001953,537.684631 
	C612.814331,531.471252 605.043579,530.926270 601.492981,536.790649 
	C597.872131,542.770996 594.582031,548.950867 591.108704,555.021484 
	C590.153748,556.690491 589.616821,558.728088 587.697266,559.647949 
	C585.759277,558.503845 585.460144,556.840454 586.083374,555.222229 
	C588.033325,550.159546 584.817993,547.391235 581.549866,544.713440 
	C575.052795,539.389832 567.640991,540.112610 560.139038,541.716125 
	C555.742432,542.655823 551.298279,543.424255 546.968872,544.610352 
	C543.730103,545.497559 541.854248,544.420044 540.641785,541.528015 
	C540.191406,540.453857 539.666504,539.411072 539.179138,538.352356 
	C535.955811,531.350464 530.175293,530.415771 524.862976,536.121887 
	C523.743530,537.324341 522.716370,538.735962 522.068481,540.233643 
	C518.650146,548.134888 512.166138,551.025391 504.133698,551.463501 
	C500.312347,551.671997 496.486420,551.802551 492.661499,551.937744 
	C490.003021,552.031738 487.848724,551.110718 486.126099,548.968140 
	C479.031647,540.143860 469.768158,540.824158 459.728119,542.083679 
	C448.077515,543.545044 443.099304,552.083374 437.522980,560.263733 
	C433.303375,566.453857 429.478119,572.912415 425.453583,579.236389 
	C424.860657,580.168091 424.495636,581.428162 422.642242,581.392151 
	C420.976013,578.473389 420.665375,574.967651 419.744019,571.693176 
	C416.587646,560.475708 407.364960,555.780029 397.996552,551.221252 
	C396.117737,550.307068 394.765533,551.577148 393.586487,552.723633 
	C376.636108,569.206604 361.140808,586.792908 352.577789,609.310730 
	C348.738922,619.405640 351.964233,628.365234 358.573151,636.178467 
	C362.226532,640.497681 368.292389,639.857422 371.052887,634.912659 
	C379.163391,620.384766 386.287354,605.386841 391.881622,589.678223 
	C393.416687,585.367859 396.434845,582.103455 400.650848,579.884155 
	C403.346985,582.981384 402.372559,586.272278 401.964569,589.226318 
	C401.408264,593.254395 401.070496,597.235596 402.291840,601.097412 
	C404.704773,608.726990 402.541168,616.650330 404.196350,624.372131 
	C406.556091,635.381042 410.139709,637.553162 421.012451,639.727600 
	C428.195007,641.164124 429.111084,637.749512 430.860535,633.197632 
	C433.309784,626.825134 435.849365,620.486145 438.450043,614.173828 
	C439.407806,611.849121 439.722015,609.301514 443.271515,608.577393 
	C445.595581,608.103333 445.521637,604.628052 445.523773,602.439819 
	C445.533081,592.858215 451.324066,586.113770 456.619690,579.153198 
	C460.665161,573.835876 465.540100,569.254761 470.503357,564.798035 
	C471.945496,563.503052 473.212341,561.778625 475.767670,561.832397 
	C477.134247,565.093872 478.527344,568.432739 479.931824,571.766785 
	C481.529388,575.559204 484.263153,576.834045 488.350647,576.079895 
	C491.932556,575.419006 495.523407,574.603027 499.238647,574.790649 
	C504.089722,575.035706 504.585022,575.689148 502.727905,580.164307 
	C498.580017,590.159302 494.493896,600.169556 490.979584,610.418884 
	C488.114014,618.776184 490.516113,626.373535 493.484863,633.999573 
	C495.632629,639.516724 500.558777,638.583862 504.917664,638.782837 
	C509.231384,638.979675 509.102753,635.293091 510.033997,632.592957 
	C512.963013,624.100037 515.842346,615.589844 518.826843,607.116638 
	C519.394775,605.504089 519.770081,603.929993 519.573242,602.242188 
	C519.415344,600.888245 519.210449,599.548706 520.753418,598.781189 
	C524.622131,596.856995 525.767151,593.163330 526.678467,589.405701 
	C527.748657,584.993530 529.930420,581.037231 531.567505,576.859314 
	C532.627747,574.153442 534.717529,572.672668 537.534973,572.090027 
	C553.139099,568.863464 568.794128,565.965088 584.968445,564.905090 
	C586.016785,566.446777 584.464050,567.724915 583.800720,569.101135 
	C577.147888,582.904480 570.722290,596.795105 564.990662,611.025696 
	C561.965942,618.535522 561.947144,625.429199 565.403503,632.636902 
	C567.882629,637.806702 573.038818,641.666138 576.808289,640.655396 
	C581.224731,639.471130 587.608398,631.267578 586.763428,626.962952 
	C584.546814,615.670227 593.062073,608.834595 596.583069,599.276062 
	C603.599304,603.682678 607.562012,609.530823 612.111633,614.713989 
	C617.603699,620.970642 622.809265,627.483826 628.015442,633.984863 
	C632.913147,640.100708 638.913574,644.610840 646.071899,647.824951 
	C649.828796,649.511780 653.694275,649.529602 657.483704,649.462280 
	C658.281311,651.850281 657.217163,653.482910 656.595703,655.142944 
	C635.634705,711.133484 614.617371,767.102966 593.729736,823.120789 
	C592.398499,826.691162 590.414062,827.990723 586.726013,827.988892 
	C515.896301,827.953613 445.065430,828.195557 374.238556,827.761108 
	C365.630280,827.708252 356.733948,826.531250 348.160004,824.851624 
	C345.000885,824.232727 342.959320,826.167847 340.074890,825.994690 
	C330.908813,825.444519 321.510101,824.446472 312.547455,825.843018 
	C299.082336,827.941223 285.696594,826.889099 272.288177,827.117188 
	C262.263824,827.287720 252.316208,825.331787 242.196899,825.871948 
	C229.612488,826.543640 216.973145,824.167297 204.365799,826.221497 
	C202.957962,826.450867 201.446182,826.042297 198.574158,825.821045 
	C222.380142,762.368469 245.942932,699.564087 269.431580,636.957336 
	C277.121582,636.933105 284.339966,638.325928 291.124298,634.991516 
	C291.717010,634.700195 292.555084,634.728699 292.982697,634.307617 
	C299.751709,627.641479 310.105377,628.309753 317.374756,621.796936 
	C321.622803,617.991028 326.397552,614.110535 331.504761,611.050293 
	C332.065094,610.714600 332.492859,610.061340 333.081329,609.883301 
	C342.082214,607.159363 344.970001,599.243652 347.588654,591.719849 
	C350.979614,581.977051 346.863464,570.332092 338.745178,563.990234 
	C333.368042,559.789612 328.070770,555.931824 326.057220,548.583313 
	C324.557434,543.109924 314.368713,539.207031 308.014038,540.928650 
	C293.685455,544.810547 281.744965,552.914978 270.997803,562.874146 
	C258.113922,574.813293 250.237564,589.134155 250.332458,607.191895 
	C250.350754,610.674255 252.058456,613.972839 251.270065,617.757996 
	C248.070877,617.502991 245.794418,614.370667 242.674225,615.231262 
	C236.147659,604.750183 238.001648,594.143494 241.521912,583.689819 
	C245.990753,570.419189 255.293259,560.623413 265.918335,552.066040 
	C273.729797,545.774780 282.345062,540.670166 291.770569,537.109558 
	C295.801941,535.586609 299.863861,534.081665 304.391083,535.387939 
	C308.042480,536.441528 308.393860,533.147583 309.212219,530.995239 
	C316.137299,512.781494 322.964874,494.530670 329.818237,476.289703 
	C333.098633,467.558502 336.076447,458.698181 339.743439,450.132690 
	C342.544403,443.590179 345.907074,437.169128 353.442657,434.573486 
	C354.298950,434.278564 355.050293,433.436584 355.654755,432.689941 
	C362.764984,423.907593 369.814514,415.076019 376.942719,406.308411 
	C378.191010,404.773041 379.174652,403.377777 377.851318,401.434204 
	C376.520966,399.480347 375.129791,397.140411 372.437531,397.798798 
	C368.464203,398.770447 364.250946,400.197998 360.523956,400.572876 
	C353.761932,401.253052 349.631927,405.533600 344.299805,408.245819 
	C336.817993,412.051361 330.056427,416.034058 325.001740,423.111877 
	C316.959808,434.372589 307.532074,444.537628 297.740295,454.330780 
	C296.692444,455.378815 295.774811,456.634033 293.299530,456.596497 
	C292.639618,451.673065 294.542236,447.340149 296.092102,442.780273 
	C299.867004,431.674194 309.696991,425.010040 315.513641,415.461578 
	C319.331329,409.194550 325.781158,406.860260 331.786011,403.790771 
	C332.364197,403.495209 333.390869,403.639740 333.652374,403.227081 
	C337.965149,396.420715 345.690033,396.771881 352.076416,394.335480 
	C352.542358,394.157745 353.014435,393.716461 353.443634,393.763428 
	C361.773193,394.674561 362.719025,388.245880 364.812561,382.660400 
	C387.317139,322.618774 409.934723,262.619507 432.374542,202.553802 
	C433.775635,198.803375 435.965240,197.950211 439.506104,197.971329 
	C455.170227,198.064819 470.835297,198.003952 487.000000,197.999268 
M393.197510,502.726990 
	C403.752106,501.665527 413.617371,498.078156 423.335632,494.158081 
	C429.360138,491.727905 429.996155,489.625427 427.722229,483.403961 
	C428.778870,482.726959 429.925110,482.068970 430.986115,481.294189 
	C432.448029,480.226654 434.363159,479.176178 433.203949,476.940735 
	C432.244354,475.090179 430.454407,475.544067 428.767578,475.953949 
	C427.170563,476.341949 425.334839,477.100586 423.957977,475.905457 
	C421.453003,473.731079 419.070404,474.730591 416.489532,475.533691 
	C410.136292,477.510651 403.794739,479.568146 397.344788,481.177704 
	C392.359985,482.421661 387.261932,483.405121 382.064789,483.308258 
	C380.226929,483.274017 378.348022,483.121826 377.778839,480.764618 
	C376.270111,474.516479 383.116760,462.661072 389.234131,460.915375 
	C399.496002,457.987000 410.030670,456.434937 420.515472,454.616058 
	C426.139313,453.640442 427.608307,451.154663 425.864929,445.922150 
	C422.664032,436.315125 417.768707,433.644928 407.974762,435.942505 
	C404.181091,436.832550 400.527557,438.578735 396.221436,438.378662 
	C396.420197,434.126617 399.442139,433.484467 402.309418,432.849640 
	C410.426117,431.052582 418.595581,429.484558 426.683167,427.568481 
	C432.173767,426.267609 437.775574,424.982330 442.304321,421.300720 
	C445.638794,418.589966 445.275848,416.817169 441.557037,414.811615 
	C434.864258,411.202301 427.429260,410.460419 420.152740,409.264313 
	C416.432343,408.652771 413.998169,408.025665 415.498291,403.430634 
	C416.147705,401.441406 416.496582,399.099182 414.766968,397.279755 
	C411.703125,394.056763 399.308472,392.429230 396.057129,395.735870 
	C389.047699,402.864502 375.572845,405.106689 377.509430,419.375153 
	C377.677368,420.612518 376.315857,422.055756 375.669342,423.405579 
	C370.280304,434.657135 363.543060,445.328430 359.530792,457.154999 
	C355.170776,470.006683 355.060028,482.927704 364.750305,493.810303 
	C372.000275,501.952362 381.984863,503.182953 393.197510,502.726990 
M285.982178,753.987732 
	C285.456970,750.494141 284.931793,747.000610 284.379761,743.328552 
	C278.862000,753.191772 285.064148,762.732910 283.328552,772.758789 
	C286.592285,771.176392 283.240723,768.166016 285.706146,766.964294 
	C286.325195,767.679565 286.876221,768.316284 287.525269,769.066223 
	C287.927765,766.802612 286.731537,765.350525 285.868256,763.752869 
	C285.177032,762.473572 283.972015,760.510132 285.415070,759.735962 
	C288.327820,758.173279 285.939270,756.362549 285.982178,753.987732 
M745.929077,259.041077 
	C746.537048,257.698334 747.145020,256.355621 747.807495,254.892548 
	C742.949219,255.506500 746.036072,251.686768 744.461182,249.144241 
	C744.613281,252.329254 744.403931,254.482849 739.401001,253.063736 
	C747.445496,260.679718 741.396851,269.035767 744.628906,276.057220 
	C748.435181,270.844879 744.343872,265.117676 745.929077,259.041077 
M292.729218,785.587830 
	C291.412170,782.320679 290.095123,779.053467 288.754395,775.727600 
	C288.083557,782.258240 288.965515,788.065247 295.456055,791.845032 
	C294.561920,789.810608 293.782806,788.037903 292.729218,785.587830 
M297.037476,799.327332 
	C300.737701,799.996094 300.537994,806.574036 305.908234,804.978027 
	C303.301636,801.727295 300.748138,798.542786 298.031189,795.154419 
	C297.588165,796.532410 297.219421,797.679260 297.037476,799.327332 
z"/>
<path fill="#000000" opacity="1.000000" stroke="none" 
	d="
M106.266403,434.202454 
	C98.907722,447.129333 92.674957,460.101440 89.135345,474.301758 
	C86.741302,483.906250 88.043365,492.066620 96.172356,498.441345 
	C96.638100,498.806610 96.878181,499.459686 97.296593,500.089081 
	C87.465271,501.169800 75.392548,489.958160 75.750542,479.857849 
	C76.201309,467.140472 80.916733,455.546173 86.344055,444.258209 
	C94.943451,426.372986 106.239670,410.038361 116.149185,392.905029 
	C119.014191,387.951477 125.238205,386.580048 130.194519,389.268738 
	C132.454224,390.494598 132.766937,392.146393 131.231384,394.164398 
	C121.740402,406.637268 114.692383,420.634979 106.266403,434.202454 
z"/>
<path fill="#000000" opacity="1.000000" stroke="none" 
	d="
M756.571106,469.537079 
	C751.398987,479.483337 753.023987,488.859833 757.936768,497.902832 
	C753.328247,499.736786 748.568359,498.337067 746.054749,493.988861 
	C741.918152,486.832886 738.988037,479.522308 742.358887,470.808167 
	C752.960938,443.400970 765.345337,416.888977 780.704041,391.811096 
	C783.512451,387.225433 790.112671,386.844482 793.929443,390.727570 
	C795.540894,392.367035 794.751404,393.556274 793.797424,395.080414 
	C779.078064,418.595673 767.475037,443.675232 756.571106,469.537079 
z"/>
<path fill="#000000" opacity="1.000000" stroke="none" 
	d="
M166.305786,613.666748 
	C167.523544,622.380920 173.595413,628.247620 178.130386,636.429199 
	C171.370422,633.815796 165.366653,632.988708 162.086899,627.123535 
	C158.948059,621.510498 153.867508,616.576782 154.001541,609.743774 
	C154.143982,602.483643 155.262955,595.245239 159.318970,588.810486 
	C161.710403,585.016602 163.563507,580.882935 165.960587,577.093079 
	C168.005798,573.859558 170.383804,570.802979 174.441544,569.771790 
	C176.577835,569.228943 178.037338,567.448608 178.596756,565.711548 
	C181.442749,556.874634 188.842239,552.211548 195.532440,547.045593 
	C202.510620,541.657166 209.974960,536.883057 218.175232,533.468933 
	C224.123886,530.992310 228.329453,531.803162 233.225800,536.083130 
	C233.138535,537.613159 231.750259,537.678650 230.776978,538.120056 
	C217.005310,544.365295 204.382919,552.220703 194.317612,563.752991 
	C193.203445,565.029480 192.429901,566.279480 191.836716,567.910156 
	C190.525665,571.514160 188.684586,574.816406 184.292206,575.687805 
	C183.098816,575.924561 181.805862,576.866211 181.039398,577.856445 
	C175.165771,585.444824 170.295044,593.553528 168.275253,603.120178 
	C167.564392,606.487061 165.490784,609.578796 166.305786,613.666748 
z"/>
<path fill="#000000" opacity="1.000000" stroke="none" 
	d="
M752.054504,621.992554 
	C755.619019,597.569275 767.651611,577.198364 780.004150,557.022034 
	C784.426575,549.798462 789.605408,543.038086 794.437500,536.065186 
	C795.195496,534.971313 795.845337,533.783203 796.720825,532.794006 
	C798.254578,531.061279 796.694763,527.196899 800.439209,527.105408 
	C804.174011,527.014221 807.659546,527.961670 810.623596,530.620850 
	C809.849487,535.131409 807.804993,538.866577 805.134521,542.549072 
	C790.640747,562.534912 777.580444,583.372131 769.012695,606.694946 
	C767.470947,610.891907 766.303284,615.269470 765.433167,619.656921 
	C764.668030,623.514526 763.269592,627.905884 769.340637,629.373474 
	C770.818115,629.730591 771.720032,631.565002 771.702576,633.403625 
	C768.909607,635.121277 766.463440,633.230408 764.612610,632.223755 
	C759.941223,629.682861 755.867371,626.131287 752.054504,621.992554 
z"/>
<path fill="#000000" opacity="1.000000" stroke="none" 
	d="
M167.131683,414.133026 
	C168.317764,412.936493 169.255005,411.991089 170.197800,411.051270 
	C176.251404,405.016846 178.189911,405.057983 184.972198,411.424225 
	C184.847244,413.854706 182.754379,414.967926 181.311462,416.446472 
	C166.721100,431.397522 153.356049,447.166046 144.684906,466.518402 
	C140.691956,475.429932 140.274246,483.676361 145.607986,492.033508 
	C146.448822,493.350891 147.656418,494.742035 146.949463,496.755249 
	C143.062210,498.020386 139.587738,496.944824 137.170044,493.885498 
	C129.935577,484.731140 126.769142,475.997742 132.148209,463.341766 
	C140.164108,444.481781 152.685104,428.844788 167.131683,414.133026 
z"/>
<path fill="#000000" opacity="1.000000" stroke="none" 
	d="
M688.084839,467.168671 
	C683.931458,468.770630 680.356934,471.197906 675.043274,470.033051 
	C676.734497,464.103394 679.534058,459.105713 684.035278,455.429260 
	C687.551697,452.557129 690.540771,449.311798 693.570007,445.999054 
	C698.453796,440.658142 704.314819,436.549347 711.058411,433.863647 
	C717.355957,431.355591 725.388794,435.519836 727.041199,441.942627 
	C727.373291,443.233551 726.844666,444.215881 726.146240,445.168610 
	C722.781921,449.757904 719.259949,454.108276 713.723511,456.364868 
	C705.254456,459.816742 696.863953,463.461151 688.084839,467.168671 
z"/>
<path fill="#000000" opacity="1.000000" stroke="none" 
	d="
M265.440613,422.458313 
	C267.913757,420.915222 269.419250,418.276001 272.566803,418.637482 
	C273.787048,420.896088 273.246826,423.251221 273.130798,425.515289 
	C272.262451,442.462585 271.235016,459.402222 270.460449,476.353516 
	C270.218872,481.640045 272.243195,486.434875 274.874329,490.980316 
	C275.930328,492.804626 277.638977,494.331421 277.854767,497.426117 
	C273.554779,496.930359 269.226166,496.165161 266.714508,493.054932 
	C261.891174,487.082123 258.122650,480.480713 258.549225,472.160492 
	C259.222595,459.027374 259.478394,445.872620 259.885132,432.726227 
	C260.015717,428.506012 261.164581,424.859222 265.440613,422.458313 
z"/>
<path fill="#000000" opacity="1.000000" stroke="none" 
	d="
M297.530762,580.495850 
	C301.828644,576.970398 306.181641,574.203064 311.118134,572.513550 
	C316.713104,570.598694 324.927429,575.412903 326.062561,581.121155 
	C326.277679,582.202942 325.938812,583.128540 325.314697,583.916992 
	C322.230591,587.813293 319.536346,592.059448 314.795044,594.347900 
	C303.540192,599.780273 291.847504,604.169312 280.307098,608.917603 
	C278.721283,609.570007 276.881287,610.329346 274.700531,609.262329 
	C274.451569,605.188293 276.363800,601.792847 279.577545,599.810059 
	C282.695282,597.886414 284.597565,595.496887 286.575195,592.504333 
	C289.471954,588.121033 292.855408,583.883606 297.530762,580.495850 
z"/>
<path fill="#000000" opacity="1.000000" stroke="none" 
	d="
M927.213196,410.264221 
	C921.906128,412.933502 919.321594,417.694702 916.214172,421.938782 
	C912.572632,426.912292 909.045837,431.969818 905.410461,436.947906 
	C901.281738,442.601593 895.844971,446.142517 888.776245,446.886383 
	C886.264771,447.150665 884.174194,446.607239 883.147522,443.890503 
	C882.061096,441.015778 883.989685,439.998657 885.963074,438.948486 
	C891.529785,435.986053 894.401917,430.547577 897.948914,425.765808 
	C901.420776,421.085358 904.430603,416.052368 908.031067,411.479431 
	C913.136963,404.994568 918.821411,399.256317 927.487671,397.424255 
	C932.693542,396.323761 935.699768,397.052887 939.227783,401.855255 
	C936.189880,405.803864 929.330139,404.446503 927.213196,410.264221 
z"/>
<path fill="#000000" opacity="1.000000" stroke="none" 
	d="
M211.145294,435.709473 
	C208.473633,429.817596 209.972153,425.111359 213.714310,420.696686 
	C215.316086,418.807068 216.726562,416.686188 217.866638,414.485291 
	C226.414932,397.982697 243.064682,394.771698 257.647400,398.315796 
	C258.261627,398.465057 258.923676,398.417542 259.487244,398.456421 
	C261.973907,395.597443 260.707275,388.900238 267.204132,390.797821 
	C274.069458,392.803040 274.605560,394.657196 272.255646,404.800323 
	C269.107819,403.975281 265.999939,402.943207 262.809662,402.368103 
	C255.311646,401.016449 248.414688,404.125519 241.324966,405.667572 
	C239.336456,406.100067 238.173111,408.020142 236.912125,409.571899 
	C229.551987,418.628967 223.508957,428.583313 217.240036,438.385651 
	C216.305389,439.847076 215.826691,441.776611 213.876434,442.431732 
	C211.436066,440.805084 212.079010,438.150726 211.145294,435.709473 
z"/>
<path fill="#000000" opacity="1.000000" stroke="none" 
	d="
M873.453796,397.931213 
	C869.732544,399.146942 867.912964,401.737640 866.312683,404.774628 
	C861.700317,413.527740 857.499817,422.409210 858.208801,432.637207 
	C858.681885,439.462860 859.575562,446.090088 866.760681,449.907135 
	C868.997620,451.095520 871.186646,453.283508 872.575134,456.429413 
	C868.100830,456.844177 864.566589,456.410767 861.528992,453.156494 
	C858.723999,450.151489 855.459229,447.619324 852.193237,445.057037 
	C847.471497,441.352600 845.074829,435.134430 846.011047,429.448120 
	C847.227356,422.060364 846.477173,414.157501 850.552246,407.288635 
	C852.667114,403.723694 854.211975,399.816650 856.375305,396.285278 
	C859.664917,390.915527 871.192810,391.372925 874.165771,396.867615 
	C874.247559,397.018738 873.869324,397.418762 873.453796,397.931213 
z"/>
<path fill="#000000" opacity="1.000000" stroke="none" 
	d="
M717.448364,598.535767 
	C707.103699,602.396973 697.671082,607.705750 686.262329,610.414001 
	C687.084351,604.274109 689.132141,600.506226 693.905151,598.503662 
	C700.043091,595.928467 706.178345,593.347107 712.317688,590.775208 
	C716.247559,589.128967 719.392700,586.485229 722.161255,583.287781 
	C724.782532,580.260437 727.207825,577.296082 723.374634,573.355164 
	C726.859558,570.685059 729.752441,572.447388 732.197144,574.127686 
	C734.192993,575.499451 735.582092,577.760803 737.218933,579.646301 
	C738.993896,581.690857 737.567566,583.263367 736.497803,584.985291 
	C732.109192,592.049316 725.272766,595.652100 717.448364,598.535767 
z"/>
<path fill="#000000" opacity="1.000000" stroke="none" 
	d="
M193.008224,462.167358 
	C194.911453,468.967804 193.858826,475.526215 194.449493,481.961914 
	C194.948349,487.397186 196.207031,492.747406 199.864746,497.332916 
	C193.612335,498.450165 187.062698,494.510681 184.583847,488.391113 
	C182.814240,484.022461 182.158386,479.381683 182.009995,474.707306 
	C181.851791,469.723999 181.518250,464.763062 181.169067,459.798615 
	C180.751434,453.861023 183.290817,444.561768 191.907211,440.977325 
	C194.999481,447.826721 190.548843,455.074677 193.008224,462.167358 
z"/>
<path fill="#000000" opacity="1.000000" stroke="none" 
	d="
M803.848999,477.172028 
	C808.307861,482.587585 812.595215,487.685272 816.734253,492.900604 
	C820.959229,498.224182 825.503357,503.185028 831.683167,506.242096 
	C830.356873,508.548981 829.186646,507.464813 828.267456,507.152679 
	C819.534668,504.186798 812.344666,499.114563 806.573303,491.827454 
	C800.271423,483.870361 793.633179,476.178955 787.110291,468.397980 
	C785.366638,466.318024 783.981689,464.136536 786.631897,461.953461 
	C789.218384,459.822876 790.581726,462.580170 791.892761,463.946838 
	C795.922729,468.148102 799.722900,472.569794 803.848999,477.172028 
z"/>
<path fill="#000000" opacity="1.000000" stroke="none" 
	d="
M833.399292,590.312866 
	C840.431213,586.670288 847.927185,587.727295 854.968567,586.312256 
	C858.263489,585.650024 859.655090,587.345703 860.766724,592.594910 
	C852.782898,591.243774 846.127441,596.001465 838.730896,596.951782 
	C832.012329,597.815063 825.249573,599.722717 818.337097,598.180725 
	C814.468079,597.317566 810.750122,598.320435 807.030945,599.257874 
	C804.992737,599.771606 803.037476,600.979980 800.778870,600.213135 
	C802.837036,593.397766 804.021606,592.656555 810.709167,593.919067 
	C811.194397,594.010742 811.786194,594.268433 812.163452,594.093384 
	C818.794617,591.016846 826.463501,593.899902 833.399292,590.312866 
z"/>
<path fill="#000000" opacity="1.000000" stroke="none" 
	d="
M877.281433,488.546875 
	C875.674866,487.386597 874.561462,485.851562 873.097046,485.357849 
	C866.951477,483.286072 868.397400,479.713196 870.633972,475.546906 
	C872.746582,471.611481 874.633545,467.534241 876.321045,463.397430 
	C877.780701,459.819244 879.835632,458.276764 883.570862,460.139130 
	C885.623779,461.162659 888.258667,460.381744 890.588501,462.730408 
	C886.612915,471.384064 884.044800,480.926208 877.281433,488.546875 
z"/>
<path fill="#000000" opacity="1.000000" stroke="none" 
	d="
M205.898819,616.043152 
	C200.108948,616.787720 194.895447,618.862000 189.214355,618.297668 
	C188.402115,613.876770 190.239777,611.556824 194.089645,610.874146 
	C205.378891,608.872314 216.687241,606.976685 227.999329,605.107239 
	C229.633255,604.837158 231.647827,604.716797 232.025711,606.914368 
	C232.433456,609.285522 231.422165,611.275269 228.878235,611.815552 
	C224.812698,612.679016 220.701614,613.327698 216.610825,614.072876 
	C213.179001,614.698059 209.748642,615.331421 205.898819,616.043152 
z"/>
<path fill="#000000" opacity="1.000000" stroke="none" 
	d="
M853.856079,478.873047 
	C858.862122,477.632324 862.593933,478.493195 865.181274,483.716675 
	C856.483093,486.040771 848.378113,488.454529 839.191345,481.921783 
	C844.729431,480.774109 849.094788,479.869476 853.856079,478.873047 
z"/>
<path fill="#000000" opacity="1.000000" stroke="none" 
	d="
M877.529846,514.248840 
	C873.564148,516.278198 863.702454,512.294861 863.341248,507.646637 
	C862.879517,501.706177 869.992859,502.530029 873.568054,499.357819 
	C871.859741,505.315186 873.098145,510.070374 877.529846,514.248840 
z"/>
<path fill="#000000" opacity="1.000000" stroke="none" 
	d="
M812.180176,399.731689 
	C818.902954,399.561218 824.852844,400.631195 831.719116,404.043030 
	C827.668884,405.793121 824.866089,404.918732 822.207825,405.108643 
	C819.198059,405.323700 816.318176,406.001343 813.450928,406.849854 
	C811.251282,407.500793 808.830200,408.754242 808.060669,405.044037 
	C807.424683,401.977386 807.844727,399.677185 812.180176,399.731689 
z"/>
<path fill="#000000" opacity="1.000000" stroke="none" 
	d="
M265.602051,633.224731 
	C263.370300,636.796204 261.048431,634.842651 259.307861,633.275696 
	C255.669617,630.000427 249.700073,628.979004 248.894730,622.916504 
	C248.727234,621.655701 249.423706,620.676880 250.732681,620.298523 
	C251.821960,619.983704 252.742996,620.311768 253.343567,621.236084 
	C256.499023,626.092590 261.910767,628.564087 265.602051,633.224731 
z"/>
</svg>